<svg xmlns="http://www.w3.org/2000/svg" width="53.011" height="28.992" viewBox="0 0 53.011 28.992">
  <g id="Logo_-_Preta" data-name="Logo - Preta" transform="translate(-0.058 -0.05)">
    <path id="Caminho_19" data-name="Caminho 19" d="M158.575,245.059a.624.624,0,0,1-.528.33,2.422,2.422,0,0,1-1.073-.544,7.469,7.469,0,0,0-1.7-1.318,2.655,2.655,0,0,0-2.339.121s-1.615.81-2.566,3.671-.971,5.18.058,6.016,2.231.191,3.037-.147A22.209,22.209,0,0,1,156.077,252c.455-.044.748.073.587.866a28.311,28.311,0,0,1-1.631,4.307,7.56,7.56,0,0,1-2.341,1.189,7.422,7.422,0,0,1-3.686.121,6.952,6.952,0,0,1-3.477-2.19c-1.13-1.219-1.8-3.717-1.511-6.681a14.864,14.864,0,0,1,4.035-8.275,8.029,8.029,0,0,1,5.549-2.758,6.673,6.673,0,0,1,5.267,2.608.878.878,0,0,1,.121.277S159.1,244.381,158.575,245.059Z" transform="translate(-143.89 -230.279)" fill="#fff"/>
    <path id="Caminho_20" data-name="Caminho 20" d="M348.846,244.5,343.9,264.019h-3.07s-1.42.055-1.8-.451-.308-.971-.077-2.069,3.487-14.061,3.487-14.061a8.278,8.278,0,0,1,.88-2.267,2.371,2.371,0,0,1,1.948-.671Z" transform="translate(-325.192 -235.793)" fill="#fff"/>
    <path id="Caminho_21" data-name="Caminho 21" d="M419.62,130.092a3.494,3.494,0,0,1,2.388.8,1.886,1.886,0,0,1,.2,2.366c-.319.484-1.167,1.827-3.785,1.827s-2.652-1.7-2.652-1.981a2.527,2.527,0,0,1,.737-1.665A3.991,3.991,0,0,1,419.62,130.092Z" transform="translate(-396.857 -129.32)" fill="#fff"/>
    <path id="Caminho_22" data-name="Caminho 22" d="M471.493,128.347H469l-1.056,4.259h2.5l-3.906,15.266h3.961s1.7.064,2.289-2.181,3.3-13.071,3.3-13.071h2.245a2.1,2.1,0,0,0,.891-.176,1.273,1.273,0,0,0,.671-.979c.185-.737.562-2.179.562-2.179a.7.7,0,0,0-.132-.649,1.226,1.226,0,0,0-.836-.286H477.27l1.8-6.922A1.492,1.492,0,0,0,479,120.35c-.275-.454-.77-.66-1.617-.66a7.3,7.3,0,0,0-2.454.6,4.035,4.035,0,0,0-1.585,1.11Z" transform="translate(-444.098 -119.64)" fill="#fff"/>
    <path id="Caminho_23" data-name="Caminho 23" d="M595.67,381.479v3.351a1.37,1.37,0,0,0,.726-.257c.5-.286,3.221-2.485,3.607-2.668a1.707,1.707,0,0,1,2.172.146c.821.866,1.658,2.118,2.113,2.625s.521.543.793.851a4.311,4.311,0,0,0,2.057,1.276,10.085,10.085,0,0,0,5.722-.2c2.568-.814,3.287-1.189,4.006-2.157a3.75,3.75,0,0,0,.323-2.933,1.327,1.327,0,0,1-.169-.44,2.075,2.075,0,0,0-.784.221c-.4.208-.947.455-1.423.694a19.776,19.776,0,0,1-2.37.741,3.819,3.819,0,0,1-1.335-.051,2.075,2.075,0,0,1-.807-.668,13.415,13.415,0,0,1-.873-1.537,8.125,8.125,0,0,1-.646-1.812,3.452,3.452,0,0,0-.693-1.651,8.273,8.273,0,0,0-2.135-.954,2.7,2.7,0,0,0-1.856,0c-.22.11-.844.359-1.2.565s-2.516,1.541-3.771,2.37-2.421,1.614-2.788,1.9A3,3,0,0,0,595.67,381.479Z" transform="translate(-564.28 -358.081)" fill="#fff"/>
    <path id="Caminho_24" data-name="Caminho 24" d="M716.038,204.736a14.138,14.138,0,0,0-3.223,1.585c-1.111.859-1.189.913-1.3,1.75a1.8,1.8,0,0,0,1.21,2.113,7.547,7.547,0,0,0,3.015.033,8.626,8.626,0,0,0,2.938-1.255,4.972,4.972,0,0,0,1.1-1.486c.1-.143.214-.583.44-1.04a3.143,3.143,0,0,0,.49-1.392c-.006-.506-.11-1.09-1.359-1.084A9.847,9.847,0,0,0,716.038,204.736Z" transform="translate(-672.071 -198.065)" fill="#fff"/>
  </g>
</svg>
