<svg xmlns="http://www.w3.org/2000/svg" width="29.929" height="29.929" viewBox="0 0 29.929 29.929">
  <path id="Icon_material-local-phone" data-name="Icon material-local-phone" d="M10.519,17.452A25.188,25.188,0,0,0,21.476,28.41l3.658-3.658a1.653,1.653,0,0,1,1.7-.4,18.966,18.966,0,0,0,5.936.948,1.668,1.668,0,0,1,1.663,1.663v5.8a1.668,1.668,0,0,1-1.663,1.663A28.264,28.264,0,0,1,4.5,6.163,1.668,1.668,0,0,1,6.163,4.5h5.819a1.668,1.668,0,0,1,1.663,1.663,18.889,18.889,0,0,0,.948,5.936,1.669,1.669,0,0,1-.416,1.7l-3.658,3.658Z" transform="translate(-4.5 -4.5)" fill="#414141"/>
</svg>
