<svg xmlns="http://www.w3.org/2000/svg" xmlns:xlink="http://www.w3.org/1999/xlink" width="60.52" height="60.51" viewBox="0 0 60.52 60.51">
  <defs>
    <filter id="Icon_awesome-instagram" x="0" y="0" width="60.52" height="60.51" filterUnits="userSpaceOnUse">
      <feOffset dy="3" input="SourceAlpha"/>
      <feGaussianBlur stdDeviation="3" result="blur"/>
      <feFlood flood-opacity="0.161"/>
      <feComposite operator="in" in2="blur"/>
      <feComposite in="SourceGraphic"/>
    </filter>
  </defs>
  <g transform="matrix(1, 0, 0, 1, 0, 0)" filter="url(#Icon_awesome-instagram)">
    <path id="Icon_awesome-instagram-2" data-name="Icon awesome-instagram" d="M21.259,12.594a10.9,10.9,0,1,0,10.9,10.9A10.882,10.882,0,0,0,21.259,12.594Zm0,17.985a7.086,7.086,0,1,1,7.086-7.086,7.1,7.1,0,0,1-7.086,7.086ZM35.147,12.148A2.542,2.542,0,1,1,32.6,9.606,2.536,2.536,0,0,1,35.147,12.148Zm7.219,2.58c-.161-3.405-.939-6.422-3.434-8.907s-5.5-3.263-8.907-3.434c-3.51-.2-14.029-.2-17.539,0-3.4.161-6.412.939-8.907,3.424S.315,11.313.144,14.719c-.2,3.51-.2,14.029,0,17.539.161,3.405.939,6.422,3.434,8.907s5.5,3.263,8.907,3.434c3.51.2,14.029.2,17.539,0,3.405-.161,6.422-.939,8.907-3.434s3.263-5.5,3.434-8.907c.2-3.51.2-14.02,0-17.53Zm-4.534,21.3a7.174,7.174,0,0,1-4.041,4.041c-2.8,1.11-9.438.854-12.531.854s-9.742.247-12.531-.854a7.174,7.174,0,0,1-4.041-4.041c-1.11-2.8-.854-9.438-.854-12.531s-.247-9.742.854-12.531A7.174,7.174,0,0,1,8.729,6.921c2.8-1.11,9.438-.854,12.531-.854S31,5.821,33.79,6.921a7.174,7.174,0,0,1,4.041,4.041c1.11,2.8.854,9.438.854,12.531S38.941,33.235,37.831,36.024Z" transform="translate(9.01 3.76)" fill="#414141"/>
  </g>
</svg>
